<?xml version="1.0" encoding="UTF-8" standalone="no"?><svg xmlns="http://www.w3.org/2000/svg" xmlns:xlink="http://www.w3.org/1999/xlink" contentScriptType="application/ecmascript" contentStyleType="text/css" height="577px" preserveAspectRatio="none" style="width:433px;height:577px;" version="1.1" viewBox="0 0 433 577" width="433px" zoomAndPan="magnify"><defs><filter height="300%" id="f1v9dukfh4ajvd" width="300%" x="-1" y="-1"><feGaussianBlur result="blurOut" stdDeviation="2.0"/><feColorMatrix in="blurOut" result="blurOut2" type="matrix" values="0 0 0 0 0 0 0 0 0 0 0 0 0 0 0 0 0 0 .4 0"/><feOffset dx="4.0" dy="4.0" in="blurOut2" result="blurOut3"/><feBlend in="SourceGraphic" in2="blurOut3" mode="normal"/></filter></defs><g><!--entity SiloHost--><rect fill="#FFFFFF" filter="url(#f1v9dukfh4ajvd)" height="47.6094" style="stroke: #000000; stroke-width: 1.5;" width="91" x="163" y="420"/><path d="M193.3333,421 L193.3333,425 L186.3333,432 L163,432 " fill="none" style="stroke: #000000; stroke-width: 1.5;"/><text fill="#000000" font-family="sans-serif" font-size="14" lengthAdjust="spacingAndGlyphs" textLength="51" x="178" y="454.5332">SiloHost</text><!--entity MqttClient--><rect fill="#FFFFFF" filter="url(#f1v9dukfh4ajvd)" height="47.6094" style="stroke: #000000; stroke-width: 1.5;" width="103" x="157" y="8"/><path d="M191.3333,9 L191.3333,13 L184.3333,20 L157,20 " fill="none" style="stroke: #000000; stroke-width: 1.5;"/><text fill="#000000" font-family="sans-serif" font-size="14" lengthAdjust="spacingAndGlyphs" textLength="63" x="172" y="42.5332">MqttClient</text><!--entity MqttBroker--><rect fill="#FFFFFF" filter="url(#f1v9dukfh4ajvd)" height="47.6094" style="stroke: #000000; stroke-width: 1.5;" width="109" x="154" y="214"/><path d="M190.3333,215 L190.3333,219 L183.3333,226 L154,226 " fill="none" style="stroke: #000000; stroke-width: 1.5;"/><text fill="#000000" font-family="sans-serif" font-size="14" lengthAdjust="spacingAndGlyphs" textLength="69" x="169" y="248.5332">MqttBroker</text><!--entity PublishPackage--><polygon fill="#FEFECE" filter="url(#f1v9dukfh4ajvd)" points="36,116,36,153.6094,381,153.6094,381,126,371,116,36,116" style="stroke: #000000; stroke-width: 1.5;"/><path d="M371,116 L371,126 L381,126 " fill="#FEFECE" style="stroke: #000000; stroke-width: 1.5;"/><text fill="#000000" font-family="sans-serif" font-size="14" lengthAdjust="spacingAndGlyphs" textLength="325" x="46" y="140.5332">Publish(MqttApplicationMessageInterceptorContext)</text><!--entity PublishPackage2--><polygon fill="#FEFECE" filter="url(#f1v9dukfh4ajvd)" points="6,322,6,359.6094,411,359.6094,411,332,401,322,6,322" style="stroke: #000000; stroke-width: 1.5;"/><path d="M401,322 L401,332 L411,332 " fill="#FEFECE" style="stroke: #000000; stroke-width: 1.5;"/><text fill="#000000" font-family="sans-serif" font-size="14" lengthAdjust="spacingAndGlyphs" textLength="385" x="16" y="346.5332">Publish(MqttApplicationMessageInterceptorContext, brokerId)</text><!--entity ValidatePublish--><polygon fill="#FEFECE" filter="url(#f1v9dukfh4ajvd)" points="145,528,145,565.6094,272,565.6094,272,538,262,528,145,528" style="stroke: #000000; stroke-width: 1.5;"/><path d="M262,528 L262,538 L272,538 " fill="#FEFECE" style="stroke: #000000; stroke-width: 1.5;"/><text fill="#000000" font-family="sans-serif" font-size="14" lengthAdjust="spacingAndGlyphs" textLength="107" x="155" y="552.5332">ValidatePublish()</text><!--link MqttClient to PublishPackage--><path d="M208.5,56.171 C208.5,72.497 208.5,94.275 208.5,110.641 " fill="none" id="MqttClient-&gt;PublishPackage" style="stroke: #A80036; stroke-width: 1.0;"/><polygon fill="#A80036" points="208.5,115.969,212.5,106.969,208.5,110.969,204.5,106.969,208.5,115.969" style="stroke: #A80036; stroke-width: 1.0;"/><!--link PublishPackage to MqttBroker--><path d="M208.5,154.057 C208.5,169.175 208.5,191.019 208.5,208.496 " fill="none" id="PublishPackage-&gt;MqttBroker" style="stroke: #A80036; stroke-width: 1.0;"/><polygon fill="#A80036" points="208.5,213.767,212.5,204.767,208.5,208.767,204.5,204.767,208.5,213.767" style="stroke: #A80036; stroke-width: 1.0;"/><!--link MqttBroker to PublishPackage2--><path d="M208.5,262.171 C208.5,278.497 208.5,300.275 208.5,316.641 " fill="none" id="MqttBroker-&gt;PublishPackage2" style="stroke: #A80036; stroke-width: 1.0;"/><polygon fill="#A80036" points="208.5,321.969,212.5,312.969,208.5,316.969,204.5,312.969,208.5,321.969" style="stroke: #A80036; stroke-width: 1.0;"/><!--link PublishPackage2 to SiloHost--><path d="M208.5,360.057 C208.5,375.175 208.5,397.019 208.5,414.496 " fill="none" id="PublishPackage2-&gt;SiloHost" style="stroke: #A80036; stroke-width: 1.0;"/><polygon fill="#A80036" points="208.5,419.767,212.5,410.767,208.5,414.767,204.5,410.767,208.5,419.767" style="stroke: #A80036; stroke-width: 1.0;"/><!--link SiloHost to ValidatePublish--><path d="M208.5,468.1714 C208.5,484.4967 208.5,506.2746 208.5,522.6414 " fill="none" id="SiloHost-&gt;ValidatePublish" style="stroke: #A80036; stroke-width: 1.0;"/><polygon fill="#A80036" points="208.5,527.9687,212.5,518.9687,208.5,522.9687,204.5,518.9687,208.5,527.9687" style="stroke: #A80036; stroke-width: 1.0;"/><!--
@startuml

skinparam componentStyle uml2

file "Publish(MqttApplicationMessageInterceptorContext)" as PublishPackage
file "Publish(MqttApplicationMessageInterceptorContext, brokerId)" as PublishPackage2
file "ValidatePublish()" as ValidatePublish

frame SiloHost {
}

frame "MqttClient" as MqttClient {
}

frame "MqttBroker" as MqttBroker {
}

MqttClient - -> PublishPackage
PublishPackage - -> MqttBroker
MqttBroker - -> PublishPackage2
PublishPackage2 - -> SiloHost
SiloHost - -> ValidatePublish

@enduml

PlantUML version 1.2019.09(Mon Aug 26 18:19:51 CEST 2019)
(GPL source distribution)
Java Runtime: OpenJDK Runtime Environment
JVM: OpenJDK 64-Bit Server VM
Java Version: 1.8.0_222-b10
Operating System: Windows 10
OS Version: 10.0
Default Encoding: Cp1252
Language: de
Country: DE
--></g></svg>