<?xml version="1.0" encoding="UTF-8" standalone="no"?><svg xmlns="http://www.w3.org/2000/svg" xmlns:xlink="http://www.w3.org/1999/xlink" contentScriptType="application/ecmascript" contentStyleType="text/css" height="478px" preserveAspectRatio="none" style="width:372px;height:478px;" version="1.1" viewBox="0 0 372 478" width="372px" zoomAndPan="magnify"><defs><filter height="300%" id="fi34t83sewmyk" width="300%" x="-1" y="-1"><feGaussianBlur result="blurOut" stdDeviation="2.0"/><feColorMatrix in="blurOut" result="blurOut2" type="matrix" values="0 0 0 0 0 0 0 0 0 0 0 0 0 0 0 0 0 0 .4 0"/><feOffset dx="4.0" dy="4.0" in="blurOut2" result="blurOut3"/><feBlend in="SourceGraphic" in2="blurOut3" mode="normal"/></filter></defs><g><!--MD5=[60c0107ac8836251b1dd9f59a5c4454c]
entity SiloHost--><rect fill="#FFFFFF" filter="url(#fi34t83sewmyk)" height="47.6094" style="stroke: #000000; stroke-width: 1.5;" width="91" x="132.5" y="420"/><path d="M162.8333,421 L162.8333,425 L155.8333,432 L132.5,432 " fill="none" style="stroke: #000000; stroke-width: 1.5;"/><text fill="#000000" font-family="sans-serif" font-size="14" lengthAdjust="spacingAndGlyphs" textLength="51" x="147.5" y="454.5332">SiloHost</text><!--MD5=[5f82d127b1082703e4fa278eab9312d4]
entity MqttClient--><rect fill="#FFFFFF" filter="url(#fi34t83sewmyk)" height="47.6094" style="stroke: #000000; stroke-width: 1.5;" width="103" x="126.5" y="8"/><path d="M160.8333,9 L160.8333,13 L153.8333,20 L126.5,20 " fill="none" style="stroke: #000000; stroke-width: 1.5;"/><text fill="#000000" font-family="sans-serif" font-size="14" lengthAdjust="spacingAndGlyphs" textLength="63" x="141.5" y="42.5332">MqttClient</text><!--MD5=[3fe58824122e025cc962a0012a5e8276]
entity MqttBroker--><rect fill="#FFFFFF" filter="url(#fi34t83sewmyk)" height="47.6094" style="stroke: #000000; stroke-width: 1.5;" width="109" x="123.5" y="214"/><path d="M159.8333,215 L159.8333,219 L152.8333,226 L123.5,226 " fill="none" style="stroke: #000000; stroke-width: 1.5;"/><text fill="#000000" font-family="sans-serif" font-size="14" lengthAdjust="spacingAndGlyphs" textLength="69" x="138.5" y="248.5332">MqttBroker</text><!--MD5=[71394f13ecafd216e93b3ebd23d438e0]
entity UnsubscribePackage--><polygon fill="#FEFECE" filter="url(#fi34t83sewmyk)" points="6,116,6,153.6094,350,153.6094,350,126,340,116,6,116" style="stroke: #000000; stroke-width: 1.5;"/><path d="M340,116 L340,126 L350,126 " fill="#FEFECE" style="stroke: #000000; stroke-width: 1.5;"/><text fill="#000000" font-family="sans-serif" font-size="14" lengthAdjust="spacingAndGlyphs" textLength="324" x="16" y="140.5332">Unsubscribe(MqttUnsubscriptionInterceptorContext)</text><!--MD5=[53c0340a307bf34cff21c7955eaadf28]
entity UnsubscribePackage2--><polygon fill="#FEFECE" filter="url(#fi34t83sewmyk)" points="50,322,50,359.6094,306,359.6094,306,332,296,322,50,322" style="stroke: #000000; stroke-width: 1.5;"/><path d="M296,322 L296,332 L306,332 " fill="#FEFECE" style="stroke: #000000; stroke-width: 1.5;"/><text fill="#000000" font-family="sans-serif" font-size="14" lengthAdjust="spacingAndGlyphs" textLength="236" x="60" y="346.5332">MqttUnsubscriptionInterceptorContext</text><!--MD5=[e2bdc28ca05bc9e85b34e250ccf978ce]
link MqttClient to UnsubscribePackage--><path d="M178,56.171 C178,72.497 178,94.275 178,110.641 " fill="none" id="MqttClient-&gt;UnsubscribePackage" style="stroke: #A80036; stroke-width: 1.0;"/><polygon fill="#A80036" points="178,115.969,182,106.969,178,110.969,174,106.969,178,115.969" style="stroke: #A80036; stroke-width: 1.0;"/><!--MD5=[cf63f47ee33632beec19e7d55f72088f]
link UnsubscribePackage to MqttBroker--><path d="M178,154.057 C178,169.175 178,191.019 178,208.496 " fill="none" id="UnsubscribePackage-&gt;MqttBroker" style="stroke: #A80036; stroke-width: 1.0;"/><polygon fill="#A80036" points="178,213.767,182,204.767,178,208.767,174,204.767,178,213.767" style="stroke: #A80036; stroke-width: 1.0;"/><!--MD5=[d63b95f48779c0370936b5157d6d58ae]
link MqttBroker to UnsubscribePackage2--><path d="M178,262.171 C178,278.497 178,300.275 178,316.641 " fill="none" id="MqttBroker-&gt;UnsubscribePackage2" style="stroke: #A80036; stroke-width: 1.0;"/><polygon fill="#A80036" points="178,321.969,182,312.969,178,316.969,174,312.969,178,321.969" style="stroke: #A80036; stroke-width: 1.0;"/><!--MD5=[07f293c7995b1ced13478129ad8ef05e]
link UnsubscribePackage2 to SiloHost--><path d="M178,360.057 C178,375.1746 178,397.0194 178,414.4959 " fill="none" id="UnsubscribePackage2-&gt;SiloHost" style="stroke: #A80036; stroke-width: 1.0;"/><polygon fill="#A80036" points="178,419.7672,182,410.7672,178,414.7672,174,410.7672,178,419.7672" style="stroke: #A80036; stroke-width: 1.0;"/><!--MD5=[a54d60f840e4f74846a56fc46028b32f]
@startuml

skinparam componentStyle uml2

file "Unsubscribe(MqttUnsubscriptionInterceptorContext)" as UnsubscribePackage
file "MqttUnsubscriptionInterceptorContext" as UnsubscribePackage2

frame SiloHost {
}

frame "MqttClient" as MqttClient {
}

frame "MqttBroker" as MqttBroker {
}

MqttClient - -> UnsubscribePackage
UnsubscribePackage - -> MqttBroker
MqttBroker - -> UnsubscribePackage2
UnsubscribePackage2 - -> SiloHost

@enduml

PlantUML version 1.2020.10(Sun May 17 11:35:57 CEST 2020)
(GPL source distribution)
Java Runtime: OpenJDK Runtime Environment
JVM: OpenJDK 64-Bit Server VM
Java Version: 14.0.1+7
Operating System: Windows 10
Default Encoding: Cp1252
Language: de
Country: DE
--></g></svg>