<?xml version="1.0" encoding="UTF-8" standalone="no"?><svg xmlns="http://www.w3.org/2000/svg" xmlns:xlink="http://www.w3.org/1999/xlink" contentScriptType="application/ecmascript" contentStyleType="text/css" height="577px" preserveAspectRatio="none" style="width:342px;height:577px;" version="1.1" viewBox="0 0 342 577" width="342px" zoomAndPan="magnify"><defs><filter height="300%" id="f1t17ohtl80kpl" width="300%" x="-1" y="-1"><feGaussianBlur result="blurOut" stdDeviation="2.0"/><feColorMatrix in="blurOut" result="blurOut2" type="matrix" values="0 0 0 0 0 0 0 0 0 0 0 0 0 0 0 0 0 0 .4 0"/><feOffset dx="4.0" dy="4.0" in="blurOut2" result="blurOut3"/><feBlend in="SourceGraphic" in2="blurOut3" mode="normal"/></filter></defs><g><!--entity SiloHost--><rect fill="#FFFFFF" filter="url(#f1t17ohtl80kpl)" height="47.6094" style="stroke: #000000; stroke-width: 1.5;" width="91" x="117.5" y="420"/><path d="M147.8333,421 L147.8333,425 L140.8333,432 L117.5,432 " fill="none" style="stroke: #000000; stroke-width: 1.5;"/><text fill="#000000" font-family="sans-serif" font-size="14" lengthAdjust="spacingAndGlyphs" textLength="51" x="132.5" y="454.5332">SiloHost</text><!--entity MqttClient--><rect fill="#FFFFFF" filter="url(#f1t17ohtl80kpl)" height="47.6094" style="stroke: #000000; stroke-width: 1.5;" width="103" x="111.5" y="8"/><path d="M145.8333,9 L145.8333,13 L138.8333,20 L111.5,20 " fill="none" style="stroke: #000000; stroke-width: 1.5;"/><text fill="#000000" font-family="sans-serif" font-size="14" lengthAdjust="spacingAndGlyphs" textLength="63" x="126.5" y="42.5332">MqttClient</text><!--entity MqttBroker--><rect fill="#FFFFFF" filter="url(#f1t17ohtl80kpl)" height="47.6094" style="stroke: #000000; stroke-width: 1.5;" width="109" x="108.5" y="214"/><path d="M144.8333,215 L144.8333,219 L137.8333,226 L108.5,226 " fill="none" style="stroke: #000000; stroke-width: 1.5;"/><text fill="#000000" font-family="sans-serif" font-size="14" lengthAdjust="spacingAndGlyphs" textLength="69" x="123.5" y="248.5332">MqttBroker</text><!--entity SubscribePackage--><polygon fill="#FEFECE" filter="url(#f1t17ohtl80kpl)" points="6,116,6,153.6094,320,153.6094,320,126,310,116,6,116" style="stroke: #000000; stroke-width: 1.5;"/><path d="M310,116 L310,126 L320,126 " fill="#FEFECE" style="stroke: #000000; stroke-width: 1.5;"/><text fill="#000000" font-family="sans-serif" font-size="14" lengthAdjust="spacingAndGlyphs" textLength="294" x="16" y="140.5332">Subscribe(MqttSubscriptionInterceptorContext)</text><!--entity SubscribePackage2--><polygon fill="#FEFECE" filter="url(#f1t17ohtl80kpl)" points="42.5,322,42.5,359.6094,283.5,359.6094,283.5,332,273.5,322,42.5,322" style="stroke: #000000; stroke-width: 1.5;"/><path d="M273.5,322 L273.5,332 L283.5,332 " fill="#FEFECE" style="stroke: #000000; stroke-width: 1.5;"/><text fill="#000000" font-family="sans-serif" font-size="14" lengthAdjust="spacingAndGlyphs" textLength="221" x="52.5" y="346.5332">MqttSubscriptionInterceptorContext</text><!--entity ValidateSubscribe--><polygon fill="#FEFECE" filter="url(#f1t17ohtl80kpl)" points="91,528,91,565.6094,235,565.6094,235,538,225,528,91,528" style="stroke: #000000; stroke-width: 1.5;"/><path d="M225,528 L225,538 L235,538 " fill="#FEFECE" style="stroke: #000000; stroke-width: 1.5;"/><text fill="#000000" font-family="sans-serif" font-size="14" lengthAdjust="spacingAndGlyphs" textLength="124" x="101" y="552.5332">ValidateSubscribe()</text><!--link MqttClient to SubscribePackage--><path d="M163,56.171 C163,72.497 163,94.275 163,110.641 " fill="none" id="MqttClient-&gt;SubscribePackage" style="stroke: #A80036; stroke-width: 1.0;"/><polygon fill="#A80036" points="163,115.969,167,106.969,163,110.969,159,106.969,163,115.969" style="stroke: #A80036; stroke-width: 1.0;"/><!--link SubscribePackage to MqttBroker--><path d="M163,154.057 C163,169.175 163,191.019 163,208.496 " fill="none" id="SubscribePackage-&gt;MqttBroker" style="stroke: #A80036; stroke-width: 1.0;"/><polygon fill="#A80036" points="163,213.767,167,204.767,163,208.767,159,204.767,163,213.767" style="stroke: #A80036; stroke-width: 1.0;"/><!--link MqttBroker to SubscribePackage2--><path d="M163,262.171 C163,278.497 163,300.275 163,316.641 " fill="none" id="MqttBroker-&gt;SubscribePackage2" style="stroke: #A80036; stroke-width: 1.0;"/><polygon fill="#A80036" points="163,321.969,167,312.969,163,316.969,159,312.969,163,321.969" style="stroke: #A80036; stroke-width: 1.0;"/><!--link SubscribePackage2 to SiloHost--><path d="M163,360.057 C163,375.175 163,397.019 163,414.496 " fill="none" id="SubscribePackage2-&gt;SiloHost" style="stroke: #A80036; stroke-width: 1.0;"/><polygon fill="#A80036" points="163,419.767,167,410.767,163,414.767,159,410.767,163,419.767" style="stroke: #A80036; stroke-width: 1.0;"/><!--link SiloHost to ValidateSubscribe--><path d="M163,468.1714 C163,484.4967 163,506.2746 163,522.6414 " fill="none" id="SiloHost-&gt;ValidateSubscribe" style="stroke: #A80036; stroke-width: 1.0;"/><polygon fill="#A80036" points="163,527.9687,167,518.9687,163,522.9687,159,518.9687,163,527.9687" style="stroke: #A80036; stroke-width: 1.0;"/><!--
@startuml

skinparam componentStyle uml2

file "Subscribe(MqttSubscriptionInterceptorContext)" as SubscribePackage
file "MqttSubscriptionInterceptorContext" as SubscribePackage2
file "ValidateSubscribe()" as ValidateSubscribe

frame SiloHost {
}

frame "MqttClient" as MqttClient {
}

frame "MqttBroker" as MqttBroker {
}

MqttClient - -> SubscribePackage
SubscribePackage - -> MqttBroker
MqttBroker - -> SubscribePackage2
SubscribePackage2 - -> SiloHost
SiloHost - -> ValidateSubscribe

@enduml

PlantUML version 1.2019.09(Mon Aug 26 18:19:51 CEST 2019)
(GPL source distribution)
Java Runtime: OpenJDK Runtime Environment
JVM: OpenJDK 64-Bit Server VM
Java Version: 1.8.0_222-b10
Operating System: Windows 10
OS Version: 10.0
Default Encoding: Cp1252
Language: de
Country: DE
--></g></svg>