<?xml version="1.0" encoding="UTF-8" standalone="no"?><svg xmlns="http://www.w3.org/2000/svg" xmlns:xlink="http://www.w3.org/1999/xlink" contentScriptType="application/ecmascript" contentStyleType="text/css" height="577px" preserveAspectRatio="none" style="width:384px;height:577px;" version="1.1" viewBox="0 0 384 577" width="384px" zoomAndPan="magnify"><defs><filter height="300%" id="f1dg8zj1bf8d5f" width="300%" x="-1" y="-1"><feGaussianBlur result="blurOut" stdDeviation="2.0"/><feColorMatrix in="blurOut" result="blurOut2" type="matrix" values="0 0 0 0 0 0 0 0 0 0 0 0 0 0 0 0 0 0 .4 0"/><feOffset dx="4.0" dy="4.0" in="blurOut2" result="blurOut3"/><feBlend in="SourceGraphic" in2="blurOut3" mode="normal"/></filter></defs><g><!--entity SiloHost--><rect fill="#FFFFFF" filter="url(#f1dg8zj1bf8d5f)" height="47.6094" style="stroke: #000000; stroke-width: 1.5;" width="91" x="138.5" y="420"/><path d="M168.8333,421 L168.8333,425 L161.8333,432 L138.5,432 " fill="none" style="stroke: #000000; stroke-width: 1.5;"/><text fill="#000000" font-family="sans-serif" font-size="14" lengthAdjust="spacingAndGlyphs" textLength="51" x="153.5" y="454.5332">SiloHost</text><!--entity MqttClient--><rect fill="#FFFFFF" filter="url(#f1dg8zj1bf8d5f)" height="47.6094" style="stroke: #000000; stroke-width: 1.5;" width="103" x="132.5" y="8"/><path d="M166.8333,9 L166.8333,13 L159.8333,20 L132.5,20 " fill="none" style="stroke: #000000; stroke-width: 1.5;"/><text fill="#000000" font-family="sans-serif" font-size="14" lengthAdjust="spacingAndGlyphs" textLength="63" x="147.5" y="42.5332">MqttClient</text><!--entity MqttBroker--><rect fill="#FFFFFF" filter="url(#f1dg8zj1bf8d5f)" height="47.6094" style="stroke: #000000; stroke-width: 1.5;" width="109" x="129.5" y="214"/><path d="M165.8333,215 L165.8333,219 L158.8333,226 L129.5,226 " fill="none" style="stroke: #000000; stroke-width: 1.5;"/><text fill="#000000" font-family="sans-serif" font-size="14" lengthAdjust="spacingAndGlyphs" textLength="69" x="144.5" y="248.5332">MqttBroker</text><!--entity DisconnectPackage--><polygon fill="#FEFECE" filter="url(#f1dg8zj1bf8d5f)" points="6,116,6,153.6094,362,153.6094,362,126,352,116,6,116" style="stroke: #000000; stroke-width: 1.5;"/><path d="M352,116 L352,126 L362,126 " fill="#FEFECE" style="stroke: #000000; stroke-width: 1.5;"/><text fill="#000000" font-family="sans-serif" font-size="14" lengthAdjust="spacingAndGlyphs" textLength="336" x="16" y="140.5332">Disconnect(MqttServerClientDisconnectedEventArgs)</text><!--entity DisconnectPackage2--><polygon fill="#FEFECE" filter="url(#f1dg8zj1bf8d5f)" points="46,322,46,359.6094,322,359.6094,322,332,312,322,46,322" style="stroke: #000000; stroke-width: 1.5;"/><path d="M312,322 L312,332 L322,332 " fill="#FEFECE" style="stroke: #000000; stroke-width: 1.5;"/><text fill="#000000" font-family="sans-serif" font-size="14" lengthAdjust="spacingAndGlyphs" textLength="256" x="56" y="346.5332">MqttServerClientDisconnectedEventArgs</text><!--entity ClearUserData--><polygon fill="#FEFECE" filter="url(#f1dg8zj1bf8d5f)" points="122.5,528,122.5,565.6094,245.5,565.6094,245.5,538,235.5,528,122.5,528" style="stroke: #000000; stroke-width: 1.5;"/><path d="M235.5,528 L235.5,538 L245.5,538 " fill="#FEFECE" style="stroke: #000000; stroke-width: 1.5;"/><text fill="#000000" font-family="sans-serif" font-size="14" lengthAdjust="spacingAndGlyphs" textLength="103" x="132.5" y="552.5332">ClearUserData()</text><!--link MqttClient to DisconnectPackage--><path d="M184,56.171 C184,72.497 184,94.275 184,110.641 " fill="none" id="MqttClient-&gt;DisconnectPackage" style="stroke: #A80036; stroke-width: 1.0;"/><polygon fill="#A80036" points="184,115.969,188,106.969,184,110.969,180,106.969,184,115.969" style="stroke: #A80036; stroke-width: 1.0;"/><!--link DisconnectPackage to MqttBroker--><path d="M184,154.057 C184,169.175 184,191.019 184,208.496 " fill="none" id="DisconnectPackage-&gt;MqttBroker" style="stroke: #A80036; stroke-width: 1.0;"/><polygon fill="#A80036" points="184,213.767,188,204.767,184,208.767,180,204.767,184,213.767" style="stroke: #A80036; stroke-width: 1.0;"/><!--link MqttBroker to DisconnectPackage2--><path d="M184,262.171 C184,278.497 184,300.275 184,316.641 " fill="none" id="MqttBroker-&gt;DisconnectPackage2" style="stroke: #A80036; stroke-width: 1.0;"/><polygon fill="#A80036" points="184,321.969,188,312.969,184,316.969,180,312.969,184,321.969" style="stroke: #A80036; stroke-width: 1.0;"/><!--link DisconnectPackage2 to SiloHost--><path d="M184,360.057 C184,375.175 184,397.019 184,414.496 " fill="none" id="DisconnectPackage2-&gt;SiloHost" style="stroke: #A80036; stroke-width: 1.0;"/><polygon fill="#A80036" points="184,419.767,188,410.767,184,414.767,180,410.767,184,419.767" style="stroke: #A80036; stroke-width: 1.0;"/><!--link SiloHost to ClearUserData--><path d="M184,468.1714 C184,484.4967 184,506.2746 184,522.6414 " fill="none" id="SiloHost-&gt;ClearUserData" style="stroke: #A80036; stroke-width: 1.0;"/><polygon fill="#A80036" points="184,527.9687,188,518.9687,184,522.9687,180,518.9687,184,527.9687" style="stroke: #A80036; stroke-width: 1.0;"/><!--
@startuml

skinparam componentStyle uml2

file "Disconnect(MqttServerClientDisconnectedEventArgs)" as DisconnectPackage
file "MqttServerClientDisconnectedEventArgs" as DisconnectPackage2
file "ClearUserData()" as ClearUserData

frame SiloHost {
}

frame "MqttClient" as MqttClient {
}

frame "MqttBroker" as MqttBroker {
}

MqttClient - -> DisconnectPackage
DisconnectPackage - -> MqttBroker
MqttBroker - -> DisconnectPackage2
DisconnectPackage2 - -> SiloHost
SiloHost - -> ClearUserData

@enduml

PlantUML version 1.2019.09(Mon Aug 26 18:19:51 CEST 2019)
(GPL source distribution)
Java Runtime: OpenJDK Runtime Environment
JVM: OpenJDK 64-Bit Server VM
Java Version: 1.8.0_222-b10
Operating System: Windows 10
OS Version: 10.0
Default Encoding: Cp1252
Language: de
Country: DE
--></g></svg>