<?xml version="1.0" encoding="UTF-8" standalone="no"?><svg xmlns="http://www.w3.org/2000/svg" xmlns:xlink="http://www.w3.org/1999/xlink" contentScriptType="application/ecmascript" contentStyleType="text/css" height="577px" preserveAspectRatio="none" style="width:314px;height:577px;" version="1.1" viewBox="0 0 314 577" width="314px" zoomAndPan="magnify"><defs><filter height="300%" id="f15umtnsd3m1q7" width="300%" x="-1" y="-1"><feGaussianBlur result="blurOut" stdDeviation="2.0"/><feColorMatrix in="blurOut" result="blurOut2" type="matrix" values="0 0 0 0 0 0 0 0 0 0 0 0 0 0 0 0 0 0 .4 0"/><feOffset dx="4.0" dy="4.0" in="blurOut2" result="blurOut3"/><feBlend in="SourceGraphic" in2="blurOut3" mode="normal"/></filter></defs><g><!--entity SiloHost--><rect fill="#FFFFFF" filter="url(#f15umtnsd3m1q7)" height="47.6094" style="stroke: #000000; stroke-width: 1.5;" width="91" x="103.5" y="420"/><path d="M133.8333,421 L133.8333,425 L126.8333,432 L103.5,432 " fill="none" style="stroke: #000000; stroke-width: 1.5;"/><text fill="#000000" font-family="sans-serif" font-size="14" lengthAdjust="spacingAndGlyphs" textLength="51" x="118.5" y="454.5332">SiloHost</text><!--entity MqttClient--><rect fill="#FFFFFF" filter="url(#f15umtnsd3m1q7)" height="47.6094" style="stroke: #000000; stroke-width: 1.5;" width="103" x="97.5" y="8"/><path d="M131.8333,9 L131.8333,13 L124.8333,20 L97.5,20 " fill="none" style="stroke: #000000; stroke-width: 1.5;"/><text fill="#000000" font-family="sans-serif" font-size="14" lengthAdjust="spacingAndGlyphs" textLength="63" x="112.5" y="42.5332">MqttClient</text><!--entity MqttBroker--><rect fill="#FFFFFF" filter="url(#f15umtnsd3m1q7)" height="47.6094" style="stroke: #000000; stroke-width: 1.5;" width="109" x="94.5" y="214"/><path d="M130.8333,215 L130.8333,219 L123.8333,226 L94.5,226 " fill="none" style="stroke: #000000; stroke-width: 1.5;"/><text fill="#000000" font-family="sans-serif" font-size="14" lengthAdjust="spacingAndGlyphs" textLength="69" x="109.5" y="248.5332">MqttBroker</text><!--entity ConnectPackage--><polygon fill="#FEFECE" filter="url(#f15umtnsd3m1q7)" points="6,116,6,153.6094,292,153.6094,292,126,282,116,6,116" style="stroke: #000000; stroke-width: 1.5;"/><path d="M282,116 L282,126 L292,126 " fill="#FEFECE" style="stroke: #000000; stroke-width: 1.5;"/><text fill="#000000" font-family="sans-serif" font-size="14" lengthAdjust="spacingAndGlyphs" textLength="266" x="16" y="140.5332">Connect(MqttConnectionValidatorContext)</text><!--entity ConnectPackage2--><polygon fill="#FEFECE" filter="url(#f15umtnsd3m1q7)" points="16.5,322,16.5,359.6094,281.5,359.6094,281.5,332,271.5,322,16.5,322" style="stroke: #000000; stroke-width: 1.5;"/><path d="M271.5,322 L271.5,332 L281.5,332 " fill="#FEFECE" style="stroke: #000000; stroke-width: 1.5;"/><text fill="#000000" font-family="sans-serif" font-size="14" lengthAdjust="spacingAndGlyphs" textLength="245" x="26.5" y="346.5332">SimpleMqttConnectionValidatorContext</text><!--entity ValidateCredentials--><polygon fill="#FEFECE" filter="url(#f15umtnsd3m1q7)" points="72.5,528,72.5,565.6094,225.5,565.6094,225.5,538,215.5,528,72.5,528" style="stroke: #000000; stroke-width: 1.5;"/><path d="M215.5,528 L215.5,538 L225.5,538 " fill="#FEFECE" style="stroke: #000000; stroke-width: 1.5;"/><text fill="#000000" font-family="sans-serif" font-size="14" lengthAdjust="spacingAndGlyphs" textLength="133" x="82.5" y="552.5332">ValidateCredentials()</text><!--link MqttClient to ConnectPackage--><path d="M149,56.171 C149,72.497 149,94.275 149,110.641 " fill="none" id="MqttClient-&gt;ConnectPackage" style="stroke: #A80036; stroke-width: 1.0;"/><polygon fill="#A80036" points="149,115.969,153,106.969,149,110.969,145,106.969,149,115.969" style="stroke: #A80036; stroke-width: 1.0;"/><!--link ConnectPackage to MqttBroker--><path d="M149,154.057 C149,169.175 149,191.019 149,208.496 " fill="none" id="ConnectPackage-&gt;MqttBroker" style="stroke: #A80036; stroke-width: 1.0;"/><polygon fill="#A80036" points="149,213.767,153,204.767,149,208.767,145,204.767,149,213.767" style="stroke: #A80036; stroke-width: 1.0;"/><!--link MqttBroker to ConnectPackage2--><path d="M149,262.171 C149,278.497 149,300.275 149,316.641 " fill="none" id="MqttBroker-&gt;ConnectPackage2" style="stroke: #A80036; stroke-width: 1.0;"/><polygon fill="#A80036" points="149,321.969,153,312.969,149,316.969,145,312.969,149,321.969" style="stroke: #A80036; stroke-width: 1.0;"/><!--link ConnectPackage2 to SiloHost--><path d="M149,360.057 C149,375.175 149,397.019 149,414.496 " fill="none" id="ConnectPackage2-&gt;SiloHost" style="stroke: #A80036; stroke-width: 1.0;"/><polygon fill="#A80036" points="149,419.767,153,410.767,149,414.767,145,410.767,149,419.767" style="stroke: #A80036; stroke-width: 1.0;"/><!--link SiloHost to ValidateCredentials--><path d="M149,468.1714 C149,484.4967 149,506.2746 149,522.6414 " fill="none" id="SiloHost-&gt;ValidateCredentials" style="stroke: #A80036; stroke-width: 1.0;"/><polygon fill="#A80036" points="149,527.9687,153,518.9687,149,522.9687,145,518.9687,149,527.9687" style="stroke: #A80036; stroke-width: 1.0;"/><!--
@startuml

skinparam componentStyle uml2

file "Connect(MqttConnectionValidatorContext)" as ConnectPackage
file "SimpleMqttConnectionValidatorContext" as ConnectPackage2
file "ValidateCredentials()" as ValidateCredentials

frame SiloHost {
}

frame "MqttClient" as MqttClient {
}

frame "MqttBroker" as MqttBroker {
}

MqttClient - -> ConnectPackage
ConnectPackage - -> MqttBroker
MqttBroker - -> ConnectPackage2
ConnectPackage2 - -> SiloHost
SiloHost - -> ValidateCredentials

@enduml

PlantUML version 1.2019.09(Mon Aug 26 18:19:51 CEST 2019)
(GPL source distribution)
Java Runtime: OpenJDK Runtime Environment
JVM: OpenJDK 64-Bit Server VM
Java Version: 1.8.0_222-b10
Operating System: Windows 10
OS Version: 10.0
Default Encoding: Cp1252
Language: de
Country: DE
--></g></svg>