<?xml version="1.0" encoding="UTF-8" standalone="no"?><svg xmlns="http://www.w3.org/2000/svg" xmlns:xlink="http://www.w3.org/1999/xlink" contentScriptType="application/ecmascript" contentStyleType="text/css" height="674px" preserveAspectRatio="none" style="width:478px;height:674px;" version="1.1" viewBox="0 0 478 674" width="478px" zoomAndPan="magnify"><defs><filter height="300%" id="ftidoadj6t8f3" width="300%" x="-1" y="-1"><feGaussianBlur result="blurOut" stdDeviation="2.0"/><feColorMatrix in="blurOut" result="blurOut2" type="matrix" values="0 0 0 0 0 0 0 0 0 0 0 0 0 0 0 0 0 0 .4 0"/><feOffset dx="4.0" dy="4.0" in="blurOut2" result="blurOut3"/><feBlend in="SourceGraphic" in2="blurOut3" mode="normal"/></filter></defs><g><!--entity SiloHost--><rect fill="#FFFFFF" filter="url(#ftidoadj6t8f3)" height="47.6094" style="stroke: #000000; stroke-width: 1.5;" width="91" x="252" y="204"/><path d="M282.3333,205 L282.3333,209 L275.3333,216 L252,216 " fill="none" style="stroke: #000000; stroke-width: 1.5;"/><text fill="#000000" font-family="sans-serif" font-size="14" lengthAdjust="spacingAndGlyphs" textLength="51" x="267" y="238.5332">SiloHost</text><!--entity MqttClient--><rect fill="#FFFFFF" filter="url(#ftidoadj6t8f3)" height="47.6094" style="stroke: #000000; stroke-width: 1.5;" width="103" x="361" y="616"/><path d="M395.3333,617 L395.3333,621 L388.3333,628 L361,628 " fill="none" style="stroke: #000000; stroke-width: 1.5;"/><text fill="#000000" font-family="sans-serif" font-size="14" lengthAdjust="spacingAndGlyphs" textLength="63" x="376" y="650.5332">MqttClient</text><!--entity MqttBroker--><rect fill="#FFFFFF" filter="url(#ftidoadj6t8f3)" height="47.6094" style="stroke: #000000; stroke-width: 1.5;" width="109" x="358" y="410"/><path d="M394.3333,411 L394.3333,415 L387.3333,422 L358,422 " fill="none" style="stroke: #000000; stroke-width: 1.5;"/><text fill="#000000" font-family="sans-serif" font-size="14" lengthAdjust="spacingAndGlyphs" textLength="69" x="373" y="444.5332">MqttBroker</text><!--entity MqttBroker2--><rect fill="#FFFFFF" filter="url(#ftidoadj6t8f3)" height="47.6094" style="stroke: #000000; stroke-width: 1.5;" width="121" x="6" y="410"/><path d="M46.3333,411 L46.3333,415 L39.3333,422 L6,422 " fill="none" style="stroke: #000000; stroke-width: 1.5;"/><text fill="#000000" font-family="sans-serif" font-size="14" lengthAdjust="spacingAndGlyphs" textLength="81" x="21" y="444.5332">MqttBroker 2</text><!--entity MqttBrokerN--><rect fill="#FFFFFF" filter="url(#ftidoadj6t8f3)" height="47.6094" style="stroke: #000000; stroke-width: 1.5;" width="121" x="162" y="410"/><path d="M202.3333,411 L202.3333,415 L195.3333,422 L162,422 " fill="none" style="stroke: #000000; stroke-width: 1.5;"/><text fill="#000000" font-family="sans-serif" font-size="14" lengthAdjust="spacingAndGlyphs" textLength="81" x="177" y="444.5332">MqttBroker n</text><!--entity ValidatePublish--><polygon fill="#FEFECE" filter="url(#ftidoadj6t8f3)" points="234,8,234,45.6094,361,45.6094,361,18,351,8,234,8" style="stroke: #000000; stroke-width: 1.5;"/><path d="M351,8 L351,18 L361,18 " fill="#FEFECE" style="stroke: #000000; stroke-width: 1.5;"/><text fill="#000000" font-family="sans-serif" font-size="14" lengthAdjust="spacingAndGlyphs" textLength="107" x="244" y="32.5332">ValidatePublish()</text><!--entity Publish--><polygon fill="#FEFECE" filter="url(#ftidoadj6t8f3)" points="10,312,10,349.6094,355,349.6094,355,322,345,312,10,312" style="stroke: #000000; stroke-width: 1.5;"/><path d="M345,312 L345,322 L355,322 " fill="#FEFECE" style="stroke: #000000; stroke-width: 1.5;"/><text fill="#000000" font-family="sans-serif" font-size="14" lengthAdjust="spacingAndGlyphs" textLength="325" x="20" y="336.5332">Publish(MqttApplicationMessageInterceptorContext)</text><!--entity CanPublish--><polygon fill="#FEFECE" filter="url(#ftidoadj6t8f3)" points="275,106,275,143.6094,320,143.6094,320,116,310,106,275,106" style="stroke: #000000; stroke-width: 1.5;"/><path d="M310,106 L310,116 L320,116 " fill="#FEFECE" style="stroke: #000000; stroke-width: 1.5;"/><text fill="#000000" font-family="sans-serif" font-size="14" lengthAdjust="spacingAndGlyphs" textLength="25" x="285" y="130.5332">true</text><!--entity CanPublish2--><polygon fill="#FEFECE" filter="url(#ftidoadj6t8f3)" points="390,312,390,349.6094,435,349.6094,435,322,425,312,390,312" style="stroke: #000000; stroke-width: 1.5;"/><path d="M425,312 L425,322 L435,322 " fill="#FEFECE" style="stroke: #000000; stroke-width: 1.5;"/><text fill="#000000" font-family="sans-serif" font-size="14" lengthAdjust="spacingAndGlyphs" textLength="25" x="400" y="336.5332">true</text><!--entity CanPublish3--><polygon fill="#FEFECE" filter="url(#ftidoadj6t8f3)" points="390,518,390,555.6094,435,555.6094,435,528,425,518,390,518" style="stroke: #000000; stroke-width: 1.5;"/><path d="M425,518 L425,528 L435,528 " fill="#FEFECE" style="stroke: #000000; stroke-width: 1.5;"/><text fill="#000000" font-family="sans-serif" font-size="14" lengthAdjust="spacingAndGlyphs" textLength="25" x="400" y="542.5332">true</text><!--link ValidatePublish to CanPublish--><path d="M297.5,46.057 C297.5,61.513 297.5,83.865 297.5,100.673 " fill="none" id="ValidatePublish-&gt;CanPublish" style="stroke: #A80036; stroke-width: 1.0;"/><polygon fill="#A80036" points="297.5,105.698,301.5,96.698,297.5,100.698,293.5,96.698,297.5,105.698" style="stroke: #A80036; stroke-width: 1.0;"/><!--link CanPublish to SiloHost--><path d="M297.5,144.057 C297.5,159.175 297.5,181.019 297.5,198.496 " fill="none" id="CanPublish-&gt;SiloHost" style="stroke: #A80036; stroke-width: 1.0;"/><polygon fill="#A80036" points="297.5,203.767,301.5,194.767,297.5,198.767,293.5,194.767,297.5,203.767" style="stroke: #A80036; stroke-width: 1.0;"/><!--link SiloHost to CanPublish2--><path d="M323.883,252.171 C343.118,269.065 369.001,291.796 387.825,308.329 " fill="none" id="SiloHost-&gt;CanPublish2" style="stroke: #A80036; stroke-width: 1.0;"/><polygon fill="#A80036" points="391.969,311.969,387.8447,303.0253,388.2116,308.6702,382.5667,309.0371,391.969,311.969" style="stroke: #A80036; stroke-width: 1.0;"/><!--link SiloHost to Publish--><path d="M271.117,252.171 C251.882,269.065 225.999,291.796 207.175,308.329 " fill="none" id="SiloHost-&gt;Publish" style="stroke: #A80036; stroke-width: 1.0;"/><polygon fill="#A80036" points="203.031,311.969,212.4333,309.0371,206.7884,308.6702,207.1553,303.0253,203.031,311.969" style="stroke: #A80036; stroke-width: 1.0;"/><!--link Publish to MqttBroker2--><path d="M161.762,350.057 C143.8,365.696 117.57,388.534 97.1794,406.288 " fill="none" id="Publish-&gt;MqttBroker2" style="stroke: #A80036; stroke-width: 1.0;"/><polygon fill="#A80036" points="93.1833,409.767,102.5978,406.8742,96.9544,406.4839,97.3447,400.8405,93.1833,409.767" style="stroke: #A80036; stroke-width: 1.0;"/><!--link Publish to MqttBrokerN--><path d="M189.651,350.057 C195.69,365.305 204.439,387.396 211.39,404.947 " fill="none" id="Publish-&gt;MqttBrokerN" style="stroke: #A80036; stroke-width: 1.0;"/><polygon fill="#A80036" points="213.299,409.767,213.7033,399.9264,211.4576,405.1184,206.2656,402.8727,213.299,409.767" style="stroke: #A80036; stroke-width: 1.0;"/><!--link CanPublish2 to MqttBroker--><path d="M412.5,350.057 C412.5,365.175 412.5,387.019 412.5,404.496 " fill="none" id="CanPublish2-&gt;MqttBroker" style="stroke: #A80036; stroke-width: 1.0;"/><polygon fill="#A80036" points="412.5,409.767,416.5,400.767,412.5,404.767,408.5,400.767,412.5,409.767" style="stroke: #A80036; stroke-width: 1.0;"/><!--link MqttBroker to CanPublish3--><path d="M412.5,458.171 C412.5,474.497 412.5,496.275 412.5,512.641 " fill="none" id="MqttBroker-&gt;CanPublish3" style="stroke: #A80036; stroke-width: 1.0;"/><polygon fill="#A80036" points="412.5,517.969,416.5,508.969,412.5,512.969,408.5,508.969,412.5,517.969" style="stroke: #A80036; stroke-width: 1.0;"/><!--link CanPublish3 to MqttClient--><path d="M412.5,556.057 C412.5,571.1746 412.5,593.0194 412.5,610.4959 " fill="none" id="CanPublish3-&gt;MqttClient" style="stroke: #A80036; stroke-width: 1.0;"/><polygon fill="#A80036" points="412.5,615.7672,416.5,606.7672,412.5,610.7672,408.5,606.7672,412.5,615.7672" style="stroke: #A80036; stroke-width: 1.0;"/><!--
@startuml

skinparam componentStyle uml2

file "ValidatePublish()" as ValidatePublish
file "Publish(MqttApplicationMessageInterceptorContext)" as Publish
file "true" as CanPublish
file "true" as CanPublish2
file "true" as CanPublish3

frame SiloHost {
}

frame "MqttClient" as MqttClient {
}

frame "MqttBroker" as MqttBroker {
}

frame "MqttBroker 2" as MqttBroker2 {
}

frame "MqttBroker n" as MqttBrokerN {
}

ValidatePublish - -> CanPublish
CanPublish - -> SiloHost
SiloHost - -> CanPublish2
SiloHost - -> Publish
Publish - -> MqttBroker2
Publish - -> MqttBrokerN
CanPublish2 - -> MqttBroker
MqttBroker - -> CanPublish3
CanPublish3 - -> MqttClient

@enduml

PlantUML version 1.2019.09(Mon Aug 26 18:19:51 CEST 2019)
(GPL source distribution)
Java Runtime: OpenJDK Runtime Environment
JVM: OpenJDK 64-Bit Server VM
Java Version: 1.8.0_222-b10
Operating System: Windows 10
OS Version: 10.0
Default Encoding: Cp1252
Language: de
Country: DE
--></g></svg>